<?xml version="1.0" standalone="no"?><!DOCTYPE svg PUBLIC "-//W3C//DTD SVG 1.1//EN" "http://www.w3.org/Graphics/SVG/1.1/DTD/svg11.dtd"><svg t="1705456826986" class="icon" viewBox="0 0 1024 1024" version="1.1" xmlns="http://www.w3.org/2000/svg" p-id="2504" xmlns:xlink="http://www.w3.org/1999/xlink" width="16" height="16"><path d="M844.653714 411.062857a396.434286 396.434286 0 0 0-47.616-21.650286V234.934857c-81.773714 33.792-202.459429 55.734857-349.184 55.734857-146.797714 0-265.654857-21.942857-347.355428-55.734857v142.628572c-7.314286 0-1.243429 4.022857 18.285714 11.922285 26.697143 10.898286 145.92 62.902857 295.497143 52.150857-33.060571 24.502857-61.878857 54.125714-85.065143 87.405715-93.037714-7.387429-170.422857-23.771429-228.644571-47.908572v135.241143c-1.682286 8.996571 4.388571 16.896 18.139428 23.771429 12.946286 6.436571 71.314286 20.626286 151.405714 30.866285a353.060571 353.060571 0 0 0-4.315428 88.210286c-65.243429-7.094857-120.685714-18.870857-165.302857-37.302857v127.268571c0.512 11.556571 6.582857 20.041143 18.285714 25.6 28.672 14.921143 102.253714 38.107429 202.605714 49.517715A378.148571 378.148571 0 0 0 415.232 1024C194.340571 1019.099429 16.822857 964.608 0 896.365714L1.609143 128C19.163429 56.32 212.041143 0 447.780571 0c235.812571 0 428.617143 56.466286 448.073143 128V443.977143a388.534857 388.534857 0 0 0-1.316571-1.024 137.069714 137.069714 0 0 0-7.241143-6.582857 185.417143 185.417143 0 0 0-42.642286-25.234286zM457.289143 192.731429c192.365714 0 348.379429-59.392 348.379428-68.754286 0-9.362286-155.940571-46.811429-348.379428-46.811429-192.365714 0-344.576 37.449143-344.576 46.811429s152.137143 68.754286 344.576 68.754286z m513.755428 660.992a105.545143 105.545143 0 0 1-79.579428 9.069714 99.620571 99.620571 0 0 1-44.836572-27.648l-200.411428 70.875428c0 9.874286-0.658286 15.725714-2.706286 23.04a107.739429 107.739429 0 0 1-52.370286 65.609143 112.932571 112.932571 0 0 1-79.872 10.825143A112.64 112.64 0 0 1 438.857143 952.32a107.666286 107.666286 0 0 1 41.691428-148.845714c6.582857-3.657143 12.434286-5.705143 22.016-8.045715l29.842286-249.709714a99.474286 99.474286 0 0 1-40.96-37.961143 101.083429 101.083429 0 0 1 39.131429-139.702857 106.788571 106.788571 0 0 1 142.848 39.789714c13.897143 23.990857 17.408 51.785143 10.020571 78.116572a33.28 33.28 0 0 1-3.291428 7.753143l193.682285 177.371428c22.528-10.386286 47.762286-12.288 72.996572-5.705143 26.916571 7.460571 49.444571 24.868571 63.341714 48.786286a100.937143 100.937143 0 0 1-39.131429 139.556572zM536.502857 483.108571a53.101714 53.101714 0 0 0 31.597714 24.502858 50.468571 50.468571 0 0 0 36.205715-2.340572h0.292571l4.096-2.194286a50.980571 50.980571 0 0 0 19.748572-70.509714 53.76 53.76 0 0 0-72.265143-20.114286 51.2 51.2 0 0 0-19.748572 70.656z m-52.662857 444.489143a60.854857 60.854857 0 0 0 81.627429 22.674286 57.563429 57.563429 0 0 0 22.308571-79.725714 60.050286 60.050286 0 0 0-38.765714-28.525715 60.416 60.416 0 0 0-42.861715 5.851429 57.782857 57.782857 0 0 0-22.308571 79.725714z m422.034286-113.371428a55.588571 55.588571 0 0 0 39.497143-4.827429 50.907429 50.907429 0 0 0 19.748571-70.582857 53.540571 53.540571 0 0 0-34.377143-25.234286 53.467429 53.467429 0 0 0-37.814857 5.193143 51.053714 51.053714 0 0 0-19.748571 70.509714 53.686857 53.686857 0 0 0 31.890285 24.649143l0.804572 0.219429z m-82.651429-88.137143L630.491429 549.449143c-7.314286 3.657143-14.994286 6.363429-22.966858 8.192l-28.818285 241.517714c18.285714 7.606857 33.938286 19.748571 45.787428 35.254857l190.390857-67.291428a98.450286 98.450286 0 0 1 8.411429-40.96z" fill="#1296db" p-id="2505"></path></svg>