<?xml version="1.0" standalone="no"?><!DOCTYPE svg PUBLIC "-//W3C//DTD SVG 1.1//EN" "http://www.w3.org/Graphics/SVG/1.1/DTD/svg11.dtd"><svg t="1704163122397" class="icon" viewBox="0 0 1024 1024" version="1.1" xmlns="http://www.w3.org/2000/svg" p-id="47199" xmlns:xlink="http://www.w3.org/1999/xlink" width="16" height="16"><path d="M800 160c16.954 0 32.986 6.696 45.145 18.855C857.304 191.014 864 207.046 864 224v576c0 16.954-6.696 32.986-18.855 45.145C832.986 857.304 816.954 864 800 864H224c-16.954 0-32.986-6.696-45.145-18.855C166.696 832.986 160 816.954 160 800V224c0-16.954 6.696-32.986 18.855-45.145C191.014 166.696 207.046 160 224 160h576m0-64H224c-70.4 0-128 57.6-128 128v576c0 70.4 57.6 128 128 128h576c70.4 0 128-57.6 128-128V224c0-70.4-57.6-128-128-128z" p-id="47200" fill="#8a8a8a"></path><path d="M736 768H288c-17.6 0-32-14.4-32-32s14.4-32 32-32h448c17.6 0 32 14.4 32 32s-14.4 32-32 32zM608 319h128c17.6 0 32-14.4 32-32s-14.4-32-32-32H608c-17.6 0-32 14.4-32 32s14.4 32 32 32zM608 544h128c17.6 0 32-14.4 32-32s-14.4-32-32-32H608c-17.6 0-32 14.4-32 32s14.4 32 32 32zM480 256H288c-17.6 0-32 14.4-32 32s14.4 32 32 32h64v224c0 17.6 14.4 32 32 32s32-14.4 32-32V320h64c17.6 0 32-14.4 32-32s-14.4-32-32-32z" p-id="47201" fill="#8a8a8a"></path></svg>