<?xml version="1.0" standalone="no"?><!DOCTYPE svg PUBLIC "-//W3C//DTD SVG 1.1//EN" "http://www.w3.org/Graphics/SVG/1.1/DTD/svg11.dtd"><svg t="1704349189993" class="icon" viewBox="0 0 1024 1024" version="1.1" xmlns="http://www.w3.org/2000/svg" p-id="14851" xmlns:xlink="http://www.w3.org/1999/xlink" width="16" height="16"><path d="M361.514667 202.666667a32 32 0 0 0-32 32v554.666666c0 17.664 14.293333 32 32 32h171.434666c107.648 0 203.946667-75.306667 203.946667-178.517333 0-73.6-48.938667-132.992-116.053333-161.024a157.610667 157.610667 0 0 0 51.498666-116.309333c0-91.861333-78.848-162.816-171.648-162.816H361.514667z m32 261.632V266.666667h107.178666c61.44 0 107.648 46.165333 107.648 98.816 0 52.650667-46.208 98.816-107.648 98.816H393.514667z m0 293.034666v-229.034666h139.434666c82.304 0 139.946667 55.893333 139.946667 114.517333s-57.642667 114.517333-139.946667 114.517333H393.514667z" fill="#0e86b3" p-id="14852"></path></svg>