<?xml version="1.0" standalone="no"?><!DOCTYPE svg PUBLIC "-//W3C//DTD SVG 1.1//EN" "http://www.w3.org/Graphics/SVG/1.1/DTD/svg11.dtd"><svg t="1704790972133" class="icon" viewBox="0 0 1024 1024" version="1.1" xmlns="http://www.w3.org/2000/svg" p-id="11240" xmlns:xlink="http://www.w3.org/1999/xlink" width="16" height="16"><path d="M132.266667 115.2l512 362.666667c10.666667 8.533333 17.066667 21.333333 17.066666 34.133333s-6.4 27.733333-17.066666 34.133333l-512 362.666667c-8.533333 6.4-17.066667 8.533333-25.6 8.533333-6.4 0-12.8-2.133333-19.2-4.266666C72.533333 904.533333 64 889.6 64 874.666667V149.333333c0-14.933333 8.533333-29.866667 23.466667-38.4 14.933333-6.4 32-6.4 44.8 4.266667zM149.333333 791.466667L544 512 149.333333 232.533333v558.933334zM746.666667 896c-23.466667 0-42.666667-19.2-42.666667-42.666667V170.666667c0-23.466667 19.2-42.666667 42.666667-42.666667h170.666666c23.466667 0 42.666667 19.2 42.666667 42.666667v682.666666c0 23.466667-19.2 42.666667-42.666667 42.666667h-170.666666z m42.666666-85.333333h85.333334V213.333333h-85.333334v597.333334z" fill="#1296db" p-id="11241"></path></svg>