<?xml version="1.0" standalone="no"?><!DOCTYPE svg PUBLIC "-//W3C//DTD SVG 1.1//EN" "http://www.w3.org/Graphics/SVG/1.1/DTD/svg11.dtd"><svg t="1704790946578" class="icon" viewBox="0 0 1024 1024" version="1.1" xmlns="http://www.w3.org/2000/svg" p-id="9382" xmlns:xlink="http://www.w3.org/1999/xlink" width="16" height="16"><path d="M891.733333 908.8l-512-362.666667c-10.666667-8.533333-17.066667-21.333333-17.066666-34.133333s6.4-27.733333 17.066666-34.133333l512-362.666667c12.8-8.533333 29.866667-10.666667 44.8-2.133333 14.933333 6.4 23.466667 21.333333 23.466667 36.266666v725.333334c0 14.933333-8.533333 29.866667-23.466667 38.4-6.4 2.133333-12.8 4.266667-19.2 4.266666-8.533333 0-17.066667-2.133333-25.6-8.533333zM874.666667 232.533333L480 512 874.666667 791.466667V232.533333zM277.333333 128c23.466667 0 42.666667 19.2 42.666667 42.666667v682.666666c0 23.466667-19.2 42.666667-42.666667 42.666667H106.666667c-23.466667 0-42.666667-19.2-42.666667-42.666667V170.666667c0-23.466667 19.2-42.666667 42.666667-42.666667h170.666666zM149.333333 810.666667h85.333334V213.333333H149.333333v597.333334z" fill="#1296db" p-id="9383"></path></svg>