<?xml version="1.0" standalone="no"?><!DOCTYPE svg PUBLIC "-//W3C//DTD SVG 1.1//EN" "http://www.w3.org/Graphics/SVG/1.1/DTD/svg11.dtd"><svg t="1703844137749" class="icon" viewBox="0 0 1024 1024" version="1.1" xmlns="http://www.w3.org/2000/svg" p-id="4511" width="16" height="16" xmlns:xlink="http://www.w3.org/1999/xlink"><path d="M512 512m-501.76 0a501.76 501.76 0 1 0 1003.52 0 501.76 501.76 0 1 0-1003.52 0Z" fill="#1FA3F6" p-id="4512"></path><path d="M578.56 184.32c15.36 0 34.304-3.072 56.32 10.24 25.6 15.36 25.6 46.08 15.36 61.44-18.432 27.136-35.84 30.72-61.44 20.48-14.848-6.144-35.84-51.2-76.8-71.68-24.576-12.288-97.28-25.6-133.12-25.6-56.32 0-107.52 15.36-133.12 35.84-28.16 22.528-70.656 71.168-76.8 138.24-5.12 56.32 15.36 143.36 46.08 189.44 23.04 34.304 40.96 76.8 66.56 102.4 10.24 10.24 10.24 20.48-5.12 25.6s-34.304-21.504-46.08-35.84c-20.48-25.6-88.064-148.48-92.16-225.28-5.12-92.16 20.48-148.48 40.96-174.08 22.528-28.16 51.2-61.44 122.88-81.92s138.24 0 168.96 5.12 87.04 25.6 107.52 25.6zM347.136 764.416c-14.848-4.608-34.304-2.56-54.272-18.944-23.04-18.944-17.92-49.664-5.632-62.976 22.016-24.064 39.936-24.576 64-10.752C384 691.2 363.52 727.04 424.96 768c23.04 15.36 118.272 55.808 153.6 61.44 55.808 8.704 113.664 17.408 168.96-10.24 71.68-35.84 97.28-87.04 107.52-153.6s-32.768-177.664-61.44-225.28c-46.08-76.8-102.4-112.64-133.12-148.48-9.216-10.752-5.632-23.04 10.24-25.6s71.68 61.44 87.04 76.8c51.2 51.2 117.76 153.6 128 266.24 11.776 128-47.616 182.784-71.68 204.8-26.624 24.576-69.12 47.104-143.36 56.32s-179.2-30.72-215.04-51.2c-27.136-15.36-81.92-46.08-108.544-54.784z" fill="#FFFFFF" p-id="4513"></path><path d="M701.44 419.84c-46.08-56.32-102.4-102.4-133.12-117.76-24.576-12.288-72.192-34.816-107.52-40.96-30.72-5.12-76.8-10.24-102.4 5.12-11.776 7.168-39.936 2.048-51.2 5.12-20.48 5.12-35.84 20.48-35.84 46.08 0 20.48 10.24 41.984 35.84 46.08 30.72 5.12 36.352-0.512 51.2-15.36 15.36-15.36-0.512-41.984 25.6-61.44 20.48-15.36 130.048 14.848 174.08 40.96 51.2 30.72 133.12 102.4 158.72 168.96 27.136 71.168 20.48 72.704 25.6 97.28 1.536 6.144 15.36 15.36 25.6 5.12 10.24-25.6-20.48-122.88-66.56-179.2zM317.44 337.92c-11.264 0-20.48-9.216-20.48-20.48s9.216-20.48 20.48-20.48 20.48 9.216 20.48 20.48-9.216 20.48-20.48 20.48zM742.4 624.64c-20.48-4.608-41.472-1.024-52.736 16.896-8.704 13.824 6.144 36.352-24.064 49.664-35.84 15.36-122.88-10.24-168.96-40.96-49.664-33.28-126.976-92.672-153.6-158.72-28.672-70.656-25.088-62.464-30.72-87.04-1.536-6.144-8.192-17.408-20.48-10.24-18.432 10.752 12.8 100.352 56.32 158.72 46.08 61.44 112.128 113.152 143.36 128 25.088 11.776 72.192 30.72 107.52 35.84 30.72 4.608 61.44 5.12 81.92 0 17.92-4.608 50.176 4.608 60.928 0.512 31.232-10.752 35.328-31.232 34.816-46.592 0-20.48-8.704-40.448-34.304-46.08z m-10.24 66.56c-11.264 0-20.48-9.216-20.48-20.48s9.216-20.48 20.48-20.48 20.48 9.216 20.48 20.48-9.216 20.48-20.48 20.48z" fill="#FFFFFF" p-id="4514"></path><path d="M517.12 435.2H450.56v-25.6h40.96zM537.6 465.92H450.56v-20.48h66.56zM450.56 476.16h40.96v20.48h-40.96zM563.2 476.16h46.08v20.48h-46.08zM563.2 445.44h46.08v20.48h-46.08zM563.2 409.6h46.08v25.6h-46.08zM563.2 496.64h-51.2l-15.36-20.48h46.08zM450.56 506.88h40.96v25.6h-40.96zM609.28 532.48h-71.68l-20.48-25.6h92.16zM609.28 568.32h-40.96l-25.6-25.6h66.56zM450.56 542.72h40.96v25.6h-40.96z" fill="#FFFFFF" p-id="4515"></path></svg>