<?xml version="1.0" standalone="no"?><!DOCTYPE svg PUBLIC "-//W3C//DTD SVG 1.1//EN" "http://www.w3.org/Graphics/SVG/1.1/DTD/svg11.dtd"><svg t="1704425193773" class="icon" viewBox="0 0 1024 1024" version="1.1" xmlns="http://www.w3.org/2000/svg" p-id="3177" width="16" height="16" xmlns:xlink="http://www.w3.org/1999/xlink"><path d="M628 22c-29.6 3.8-57.4 19.4-78.2 43.4-49.4 57-35.6 147.6 28.2 187 22.4 13.8 35.8 18 60.6 19.2 23.6 1 39-1.8 58.8-10.8 48.2-21.8 78.2-72.6 73.6-124.6C764.6 64.4 699.6 12.4 628 22zM456 88.2c-5 1-14.8 2.8-22 4-101.2 17.8-200 79.4-263.4 164-28 37.4-51.8 83.6-65.6 127.2-1.6 5.4-3.8 12.2-5 15.6-7 22.4-17.6 99.8-14 103.6 0.8 0.8 5.4 0.2 10.2-1.2 21.2-6.8 28.2-8 46.6-7 21.4 1.2 21.2 1.4 21.2-17 0-5.4 1-13.8 2-19 1.2-5.2 3-14 4.2-19.4 7.4-37 26.4-83.8 47.2-115.8 53-82.2 139.4-139.4 236-156.2 9.2-1.6 17.8-3.6 19-4.2 1-0.6 1.4-4.4 0.8-8.6-1.4-8 1.4-36.6 4.6-49.2 5.4-20.8 5.6-19-4-18.8-4.8 0.2-12.8 1-17.8 2zM800.6 222.4c-4.4 9.2-13.6 23.6-20.4 32.2-6.8 8.6-12.2 16.4-11.8 17.4 0.4 1 4.2 5.6 8.6 10.4 21.8 23.6 44.6 60 58.8 94.4 11.6 27.6 17.4 48.6 23.4 82.8 3.6 21 4 84.6 0.6 103-5.2 27.8-13 58.6-17.8 70.4-18 44.2-33.8 72.2-56 98.8-5.6 6.6-10 12.6-10 13.4 0 0.6 5 6.2 11 12.2 11.8 11.8 25.6 31.6 29.4 42 1.4 3.6 3.4 6.6 4.8 6.6 3 0 17.4-16 32.6-36.2 34-44.8 59.6-98.4 73.8-153.8 5.6-21.4 14.4-84 14.4-102.2 0-16.8-7.8-79.4-12.2-96.8-4.6-17.6-5.8-22.4-9.6-34-15-47.8-42.4-98.6-73.6-137.6-13.4-16.6-34.4-39.4-36.6-39.4-0.8 0-5 7.4-9.4 16.4zM484 315.2c-46.4 8.8-77.8 24.8-109.6 55.6-39 37.8-60.4 87.6-60.4 140.8 0 92.8 64.4 173.8 155 194.6 19.8 4.6 63.8 5 83.4 1 39-8.4 73-27 101-55.4 31-31.4 47.8-64.2 55.6-108.8 3.4-18.4 3.8-43.4 1.2-55.6-1-4.6-3-13.8-4.4-20.4-5-24-18.6-53.4-33.8-73.2-29.4-38.4-63-60.8-113-75-10-2.8-65-5.4-75-3.6zM113.8 544.6c-15.4 5.2-25.6 12.4-34.2 24.2-11.2 15.2-14.2 24.4-14.4 44.2 0 15.8 0.8 19.4 5.6 29.4 14.8 29.8 47.4 47.6 76.6 42 16.4-3.4 31.6-11.8 42.6-24 13-14 18-27.8 18-48.6 0-13.8-0.8-18-5.8-28.6-9.8-20.2-25.4-33.4-47.4-40.2-13.6-4.2-25.6-3.6-41 1.6zM207 708.4c-11.4 8.8-30.6 17.4-45.2 20.4-6.8 1.4-13 3.6-13.4 4.8-0.8 2.8 17 28.8 33.6 49.4 21 25.6 57.4 60 80 75.6 57.4 39.2 107.8 61.2 168 73l22 4.4c15.4 3.2 91 5.2 92.6 2.6 0.8-1.2-1-7.4-3.8-13.8-6.6-15-12.8-39.4-12.8-51v-9l-31.4-2.4c-17.4-1.4-41-4.4-52.6-6.6-55-10.8-110-37-154.6-73.4-18.6-15-47.8-46.2-60.8-65-6-8.4-11.6-15.4-12.2-15.2-0.8 0-5 2.8-9.4 6.2zM661 761.4c-59.8 14.4-94.2 66-83 124.6 6.8 35.8 39.6 69.8 75.6 78.2 5.2 1.2 11 3 12.8 4 4.8 2.4 25.6 2.2 25.6-0.2 0-1.2 2.4-2 5.6-2 3 0 10.2-1.8 16-3.8 41.6-15.2 70.2-55.2 70.2-98.2 0-46.6-34.6-90.2-80-101-12.2-2.8-34.2-3.6-42.8-1.6z" fill="#00A6E8" p-id="3178"></path></svg>